<?xml version="1.0" standalone="no"?>
<!DOCTYPE svg PUBLIC "-//W3C//DTD SVG 20010904//EN"
 "http://www.w3.org/TR/2001/REC-SVG-20010904/DTD/svg10.dtd">
<svg version="1.0" xmlns="http://www.w3.org/2000/svg"
 width="133.000000pt" height="133.000000pt" viewBox="0 0 133.000000 133.000000"
 preserveAspectRatio="xMidYMid meet">
<metadata>
Created by potrace 1.14, written by Peter Selinger 2001-2017
</metadata>
<g transform="translate(0.000000,133.000000) scale(0.100000,-0.100000)"
fill="#000000" stroke="none">
<path d="M319 1328 c-7 -14 -2 -108 6 -109 5 -1 26 -3 45 -4 19 -1 43 -3 53
-4 15 -1 17 -16 17 -174 0 -152 -2 -174 -17 -187 -10 -9 -61 -50 -115 -92 -53
-42 -108 -92 -122 -111 -77 -100 -71 -241 12 -332 37 -41 210 -181 378 -307 8
-5 11 99 11 367 0 206 -3 375 -6 375 -3 0 -35 -23 -71 -51 l-65 -50 -5 -185
-5 -184 -59 48 c-69 57 -95 101 -96 161 0 72 28 105 201 241 88 69 167 126
175 128 7 2 26 -6 41 -18 l28 -22 5 -409 5 -409 155 121 c193 149 242 196 271
256 33 67 33 160 0 225 -30 59 -61 89 -246 233 -82 65 -167 131 -189 149 -61
50 -64 50 -102 21 l-34 -26 0 175 0 176 -135 0 c-74 0 -136 -1 -136 -2z m635
-690 c32 -29 65 -67 73 -85 32 -79 3 -157 -87 -227 l-60 -47 0 205 c0 113 3
206 8 206 4 0 34 -24 66 -52z"/>
<path d="M730 1181 l0 -149 38 -28 c20 -15 39 -31 42 -34 3 -3 19 -16 37 -28
l31 -22 0 140 c0 77 3 143 6 148 2 4 30 7 60 6 62 -2 65 2 62 71 l-2 40 -137
3 -137 3 0 -150z"/>
</g>
</svg>
